<svg viewBox="0 0 124 26" version="1.1" xmlns="http://www.w3.org/2000/svg" xmlns:xlink="http://www.w3.org/1999/xlink">
    <g id="00/Logo/Space" stroke="none" stroke-width="1" fill="none" fill-rule="evenodd">
        <path d="M10.571937,0.502377778 C12.3428259,0.502377778 14.1016778,0.783562963 15.799863,1.33774815 C16.4968074,1.56605062 17.1573064,1.84450741 17.7710504,2.16949626 L18.1336037,2.37004444 L18.1571963,2.38208148 C18.9641593,2.88619259 19.3844926,3.5048963 19.309863,4.0793037 C19.2852111,4.26842963 19.2090985,4.44769481 19.0874416,4.60995022 L18.9877519,4.72834074 L15.6876778,8.13337778 C15.6833444,8.12615556 15.6794926,8.12134074 15.6780481,8.1198963 C15.0400852,7.35674815 14.1531963,6.74045185 13.1117519,6.33697037 C12.0095296,5.90941481 10.8022818,5.77765413 9.80773607,5.95456406 L9.56371481,6.00522963 L9.5069,6.01678519 C9.2416037,6.08756296 8.98304815,6.18097037 8.73797407,6.29508148 C8.04608519,6.61382222 7.69556667,7.1708963 7.69556667,7.94897037 C7.69556667,8.69863704 8.08123333,9.23982222 8.84004815,9.55663704 C9.53915926,9.85034074 10.6764185,10.1777481 12.2239,10.5326 C13.1093444,10.7213407 14.0179,10.9953037 14.9230852,11.3448593 C15.8200852,11.6915259 16.6414926,12.1532667 17.3627519,12.7185259 C18.0772704,13.2789704 18.6622704,13.9742296 19.1009,14.7855259 C19.5351963,15.5929704 19.7547519,16.5713407 19.7547519,17.6931926 C19.7547519,19.165563 19.4547889,20.426563 18.8630481,21.4396 C18.2684185,22.4569704 17.4831222,23.2889704 16.5293074,23.9144148 C15.5726037,24.5422667 14.4796407,25.0049704 13.2807519,25.2890444 C10.1381222,26.0324519 6.95264074,25.7893037 3.94578889,24.7873407 C2.65108519,24.3559333 1.4936037,23.7743037 0.483455556,23.0443778 C0.233566667,22.8411926 0.0785296296,22.6062296 0.0231592593,22.3452667 C-0.0928777778,21.7886741 0.246566667,21.3293407 0.580233333,20.9619704 C0.583603704,20.9586 3.87934444,17.4750815 3.87934444,17.4750815 C4.47349259,18.4991926 5.57078889,19.3803037 6.89293704,19.893563 C7.34601111,20.0693037 7.8091963,20.1959333 8.24493704,20.2657481 C8.25312222,20.268637 8.28923333,20.2801926 8.29838148,20.2811556 C8.69223333,20.3447111 9.09956667,20.3769704 9.51027037,20.3769704 C10.1780852,20.3769704 10.8439741,20.2171185 11.4930111,19.9003037 C12.1820111,19.5651926 12.5320481,18.968637 12.5320481,18.1274889 C12.5320481,17.3171556 12.1073815,16.7119333 11.2720111,16.3272296 C10.4920111,15.9709333 9.26327037,15.5939333 7.61997407,15.2068222 C6.79664074,15.0171185 5.96030741,14.7604889 5.13601111,14.4427111 C4.32134444,14.1302296 3.58323333,13.7012296 2.94141852,13.1687111 C2.30201111,12.6390815 1.77382593,11.9760815 1.36938148,11.196563 C0.9659,10.4233037 0.761751852,9.47671111 0.761751852,8.38326667 C0.761751852,6.97445185 1.06123333,5.76304444 1.65297407,4.78371111 C2.24567778,3.79908148 3.02327037,2.98152593 3.96312222,2.35415556 C4.90682593,1.72582222 5.96897407,1.25445185 7.11875185,0.95497037 C8.27575185,0.654525926 9.43708519,0.502377778 10.571937,0.502377778 Z M109.334767,0.485959259 C111.072915,0.485959259 112.690211,0.782551852 114.143804,1.36707037 C115.59547,1.95158889 116.857433,2.80525556 117.89647,3.9064037 C118.93647,5.01188519 119.759322,6.37255185 120.343841,7.95036667 C120.929322,9.53347778 121.226396,11.3645519 121.226396,13.3920704 L121.226396,14.3579222 C121.226396,14.5895148 121.21773,14.8201444 121.205693,15.0098481 L121.1951,15.0445148 C121.192211,15.0594407 121.197026,15.0835148 121.197026,15.0989222 L108.079063,15.0989222 C107.921619,15.0989222 107.788248,14.9973296 107.74347,14.8533667 C107.567248,14.195663 107.46373,13.465737 107.46373,12.7165519 C107.46373,12.0482556 107.550396,11.3765889 107.69147,10.7781074 C107.734804,10.6327 107.8701,10.5287 108.028989,10.5287 L113.958915,10.5287 C114.125507,10.5287 114.261767,10.399663 114.284396,10.2215148 C114.285359,10.2128481 114.286322,10.1834778 114.286322,10.1748111 C114.250693,8.95714444 113.838544,7.8897 113.062396,7.00281111 C112.241952,6.06536667 111.004544,5.59014444 109.382915,5.59014444 C108.593285,5.59014444 107.858063,5.71629259 107.19747,5.96377407 C106.538322,6.21125556 105.952359,6.55455185 105.454507,6.98547778 C104.9581,7.4164037 104.554137,7.92918148 104.255137,8.50984815 C104.244544,8.52910741 104.234915,8.54788519 104.225285,8.56714444 L104.20073,8.62010741 C103.632581,9.79636667 103.293137,11.2215519 103.293137,12.7579593 C103.293137,14.0964778 103.558433,15.3502556 103.999952,16.4287741 L104.037989,16.5091815 C104.131878,16.7504037 104.24647,16.9810333 104.38273,17.2005889 C104.729878,17.7644037 105.183915,18.2593667 105.728952,18.6724778 C106.272063,19.0841444 106.889804,19.4105889 107.564359,19.6402556 C108.236989,19.8708852 108.947174,19.9874037 109.672767,19.9874037 C110.951581,19.9874037 112.050804,19.744737 112.941063,19.2666259 C113.082137,19.1910333 113.358026,19.0480333 113.358026,19.0480333 C114.368174,18.4919222 115.332581,18.3258111 116.130878,18.7894778 L120.218656,21.3692556 L120.200841,21.3798481 C119.529174,21.9017741 118.849804,22.4521074 118.18873,23.0106259 L118.138656,23.0452926 C117.479507,23.5681815 116.741396,24.0275148 115.944063,24.4078852 C114.125507,25.2774407 111.982433,25.7184778 109.575989,25.7184778 C107.803174,25.7184778 106.003878,25.4372926 104.420767,24.8835889 C102.841507,24.3318111 101.439915,23.5157 100.254989,22.4564407 C99.0734333,21.4000704 98.1297296,20.0808111 97.4513222,18.535737 C96.7729148,16.9892185 96.4281741,15.194737 96.4281741,13.1994778 C96.4281741,11.2692185 96.7647296,9.49784815 97.4277296,7.93447778 C98.0912111,6.37062593 99.0041,5.02584815 100.13847,3.9377 C101.276693,2.84858889 102.637359,1.99155185 104.184359,1.39210741 C105.733767,0.791218519 107.531137,0.485959259 109.334767,0.485959259 Z M87.2418926,0.481240741 C88.0945963,0.481240741 88.9521148,0.561648148 89.7918185,0.720055556 C90.4658926,0.84812963 91.2088185,1.0127963 91.847263,1.21261111 C92.8010778,1.54098148 93.3899296,2.07590741 93.4457815,2.64405556 C93.4688926,2.88142593 93.4106333,3.1212037 93.2787074,3.34894444 L93.2787074,3.34894444 L93.2551148,3.39853704 C92.8675222,4.06635185 92.5155593,4.76931481 92.2025963,5.50598148 C91.8073,6.43957407 91.4924111,7.42468519 91.2564852,8.45312963 C90.5853,7.75161111 89.598263,7.23305556 88.5770407,6.97690741 C87.2216704,6.63746296 85.6674481,6.80887037 84.6009667,7.43575926 L84.6009667,7.43575926 L84.5638926,7.45742593 C84.0159667,7.77761111 83.5287074,8.1835 83.1184852,8.66401852 C82.6235222,9.24083333 82.2311148,9.91635185 81.9533,10.6713148 C81.6730778,11.4277222 81.5310407,12.2433519 81.5310407,13.0975 C81.5310407,13.9521296 81.6644111,14.7682407 81.9273,15.5203148 C82.1901889,16.2796111 82.5840407,16.957537 83.096337,17.5343519 C83.6067074,18.1121296 84.227337,18.5743519 84.9389667,18.9041667 C85.6501148,19.2354259 86.5918926,19.4025 87.4831148,19.4025 C88.2539667,19.4025 89.1013741,19.2075 89.8755963,18.9869815 L89.8755963,18.9869815 L89.9189296,18.9696481 C90.5487074,18.8189444 91.0735222,18.8988704 91.4038185,19.2050926 C91.5371889,19.3297963 91.6354111,19.4867593 91.6980037,19.6692407 L91.6980037,19.6692407 L91.7230407,19.741463 C91.8766333,20.1998333 92.0485222,20.6452037 92.2367815,21.0770926 C92.7283741,22.196537 93.3167444,23.2350926 93.9932259,24.1869815 C93.9436333,24.2182778 93.8656333,24.2592037 93.8656333,24.2592037 C93.3899296,24.4985 92.8752259,24.7151667 92.3345222,24.9034259 C90.7817444,25.4412407 89.0305963,25.7132778 87.2905222,25.7132778 C85.4194852,25.7132778 83.5778185,25.4248704 81.9581148,24.8547963 C80.3413,24.2856852 78.9185222,23.4459815 77.729263,22.3573519 C76.5380778,21.2687222 75.5885963,19.9326111 74.9053741,18.3851296 C74.2226333,16.8390926 73.8764481,15.0605 73.8764481,13.0975 C73.8764481,11.1677222 74.2226333,9.40501852 74.9053741,7.85898148 C75.5885963,6.31053704 76.5395222,4.97394444 77.729263,3.88675926 C78.9170778,2.79909259 80.3413,1.94975926 81.9590778,1.36427778 C83.579263,0.778796296 85.4060037,0.481240741 87.2418926,0.481240741 Z M58.2774111,0.485766667 C60.2736333,0.485766667 61.9833741,0.735174074 63.3589667,1.22484074 C64.7230037,1.71161852 65.8414852,2.47332222 66.6864852,3.48828519 C67.5329296,4.50854444 68.1631889,5.81672963 68.5570407,7.37769259 C68.9220438,8.81872654 69.1215744,10.5304233 69.1522948,12.4712462 L69.1564852,13.0062111 L69.1564852,20.979063 C69.1763463,22.116884 69.2006578,23.1887587 69.4504541,24.5878023 L69.524337,24.9777667 L63.8086704,24.9777667 C63.3324852,24.9777667 62.9376704,24.7938407 62.6651519,24.513137 C62.4334389,24.2738407 62.2997826,23.9497586 62.2735372,23.558631 L62.2688926,23.3869519 L62.2664852,23.332063 L62.2684111,22.8337296 L62.2669667,22.7855815 C62.2611889,22.6498037 62.1836704,22.5578407 62.0729296,22.5121 C61.9470566,22.4609254 61.8275509,22.4896964 61.715019,22.6138765 L61.659337,22.6839889 L61.6487444,22.6984333 C61.0608556,23.5525815 60.203337,24.2324333 59.098337,24.7196926 C57.0804481,25.6123593 54.7134852,25.776063 52.1890778,25.1448407 C51.1847074,24.8944704 50.2540037,24.4799148 49.4215222,23.9141741 C48.594337,23.3527667 47.907263,22.5939519 47.3761889,21.6560259 C46.8470407,20.7233963 46.5788556,19.5509889 46.5788556,18.1715444 C46.5788556,16.4853963 47.0425222,15.1122111 47.9578185,14.089063 C48.8837074,13.0519519 50.0955963,12.2392111 51.5588185,11.6729889 C53.0345593,11.1024333 54.6995222,10.7158037 56.5094111,10.5256185 C57.7712778,10.3931148 59.0266733,10.3052926 60.2494668,10.2638775 L61.1600407,10.2415444 L61.2356333,10.241063 C61.557263,10.241063 61.8254481,10.1033593 61.9491889,9.87032222 C61.9803247,9.81158148 62.0014029,9.74898889 62.0128514,9.68026187 L62.0228556,9.57228519 L62.0218926,9.52943333 C61.9881889,8.35606296 61.5408926,7.47158148 60.6915593,6.89958148 C59.8292259,6.31891481 58.7560037,6.02472963 57.5051148,6.02472963 C57.1074111,6.02472963 56.7039296,6.05650741 56.2985222,6.11958148 C55.5652259,6.2568037 54.7698185,6.5481 53.9994481,6.96169259 C53.1991189,7.39096008 52.5148208,7.89821568 51.9898382,8.45742109 L51.8005222,8.66950741 L49.1899296,5.86295185 C48.6025222,5.23943333 48.3839296,4.5668037 48.5885593,3.99047037 C48.6776333,3.73961852 48.8745593,3.49021111 49.1283,3.2981 C50.1740778,2.53928519 51.3089296,1.94224815 52.5680037,1.48965556 C54.4255593,0.823766667 56.3457074,0.485766667 58.2774111,0.485766667 Z M24.6345667,0.502618519 L35.1010111,0.502618519 C36.4477148,0.502618519 37.7241222,0.637914815 38.8960481,0.905137037 C40.0597889,1.16947037 41.084863,1.60087778 41.9467148,2.18587778 C42.8003815,2.76654444 43.4821593,3.54172963 43.9737519,4.48928519 C44.4643815,5.43732222 44.7137889,6.62898889 44.7137889,8.0301 C44.7137889,9.45384074 44.4470481,10.6686185 43.9222333,11.6383222 C43.3964556,12.6109148 42.6776037,13.4039148 41.7883074,13.9966185 C40.8913074,14.5951 39.8411963,15.0385444 38.6644556,15.3153963 C37.6504556,15.5531106 36.5894079,15.6910698 35.5046596,15.7256354 L34.9604185,15.7342852 L32.1071593,15.7342852 C31.9495944,15.7342852 31.8170968,15.8529854 31.7870794,16.0361966 L31.7807148,16.1185074 L31.7807148,20.979063 C31.8019,22.1173253 31.827131,23.1892368 32.0767005,24.5879127 L32.1504926,24.9777667 L24.6345667,24.9777667 C24.927187,23.5164302 24.9742284,22.4175959 24.9982089,21.2881484 L25.0043444,20.979063 L25.0043444,4.50132222 C24.9827179,3.36305988 24.9582593,2.29155293 24.7084507,0.892573658 L24.6345667,0.502618519 L35.1010111,0.502618519 Z M61.9477444,14.0770259 C61.9092259,14.0770259 61.8557815,14.0808778 61.8004111,14.1011 C61.2234587,14.3107508 60.5761118,14.4326737 59.8556414,14.4920349 L59.4893,14.5166185 L59.4406704,14.5185444 C59.1050778,14.5382852 58.7680407,14.5633222 58.4300407,14.5931741 C57.5364111,14.6750259 56.7289667,14.8324704 56.0260037,15.0592481 C55.3129296,15.2922852 54.7134852,15.6384704 54.2450037,16.0901 C53.7620778,16.5556926 53.5165222,17.1748778 53.5165222,17.9298407 C53.5165222,18.4132481 53.6315963,18.8355074 53.8583741,19.1826556 C54.080337,19.5254704 54.3673,19.8037667 54.7115593,20.0112852 C55.0510037,20.2149519 55.4429296,20.3598778 55.8781889,20.4426926 C56.305263,20.5245444 56.7227074,20.5659519 57.1194481,20.5659519 C58.7694852,20.5659519 60.0550407,20.1022852 60.9371148,19.1860259 C61.7599346,18.3321988 62.2048534,17.1856137 62.260519,15.7744561 L62.2664852,15.4680259 L62.2664852,14.6422852 L62.2611889,14.4684704 C62.2611889,14.4631741 62.2597444,14.4289889 62.2597444,14.427063 C62.2597444,14.2291741 62.1278185,14.0770259 61.9477444,14.0770259 Z M35.8386407,5.5133963 L32.1105296,5.5133963 C31.9533861,5.5133963 31.8205725,5.63946921 31.7898244,5.82291084 L31.7831222,5.90484074 L31.7831222,10.4432852 L31.7864926,10.4948037 C31.8042386,10.6466767 31.9082976,10.7663593 32.0619814,10.7974548 L32.1427889,10.8053593 L35.8386407,10.8053593 C38.014937,10.8053593 38.9880111,9.47791481 38.9880111,8.16106296 C38.9880111,6.84372963 38.014937,5.5133963 35.8386407,5.5133963 Z" id="Combined-Shape" fill="#418FAB"></path>
    </g>
</svg>